<?xml version="1.0" encoding="UTF-8" standalone="no"?>
<!-- Created with Inkscape (http://www.inkscape.org/) -->

<svg
   xmlns:dc="http://purl.org/dc/elements/1.1/"
   xmlns:cc="http://creativecommons.org/ns#"
   xmlns:rdf="http://www.w3.org/1999/02/22-rdf-syntax-ns#"
   xmlns:svg="http://www.w3.org/2000/svg"
   xmlns="http://www.w3.org/2000/svg"
   xmlns:sodipodi="http://sodipodi.sourceforge.net/DTD/sodipodi-0.dtd"
   xmlns:inkscape="http://www.inkscape.org/namespaces/inkscape"
   version="1.1"
   width="16"
   height="16"
   id="svg3920"
   sodipodi:docname="temp.svg"
   inkscape:version="0.92.5 (2060ec1f9f, 2020-04-08)">
  <sodipodi:namedview
     pagecolor="#ffffff"
     bordercolor="#666666"
     borderopacity="1"
     objecttolerance="10"
     gridtolerance="10"
     guidetolerance="10"
     inkscape:pageopacity="0"
     inkscape:pageshadow="2"
     inkscape:window-width="1560"
     inkscape:window-height="875"
     id="namedview7"
     showgrid="false"
     inkscape:zoom="32"
     inkscape:cx="2.936916"
     inkscape:cy="7.9642995"
     inkscape:window-x="40"
     inkscape:window-y="0"
     inkscape:window-maximized="1"
     inkscape:current-layer="layer1" />
  <defs
     id="defs3922" />
  <metadata
     id="metadata3925">
    <rdf:RDF>
      <cc:Work
         rdf:about="">
        <dc:format>image/svg+xml</dc:format>
        <dc:type
           rdf:resource="http://purl.org/dc/dcmitype/StillImage" />
        <dc:title></dc:title>
      </cc:Work>
    </rdf:RDF>
  </metadata>
  <g
     transform="translate(0,-1036.3622)"
     id="layer1">
    <path
       style="color:#000000;font-style:normal;font-variant:normal;font-weight:normal;font-stretch:normal;font-size:medium;line-height:normal;font-family:sans-serif;font-variant-ligatures:normal;font-variant-position:normal;font-variant-caps:normal;font-variant-numeric:normal;font-variant-alternates:normal;font-feature-settings:normal;text-indent:0;text-align:start;text-decoration:none;text-decoration-line:none;text-decoration-style:solid;text-decoration-color:#000000;letter-spacing:normal;word-spacing:normal;text-transform:none;writing-mode:lr-tb;direction:ltr;text-orientation:mixed;dominant-baseline:auto;baseline-shift:baseline;text-anchor:start;white-space:normal;shape-padding:0;clip-rule:nonzero;display:inline;overflow:visible;visibility:visible;opacity:1;isolation:auto;mix-blend-mode:normal;color-interpolation:sRGB;color-interpolation-filters:linearRGB;solid-color:#000000;solid-opacity:1;vector-effect:none;fill:#bebebe;fill-opacity:1;fill-rule:nonzero;stroke:none;stroke-width:1;stroke-linecap:round;stroke-linejoin:miter;stroke-miterlimit:0;stroke-dasharray:none;stroke-dashoffset:0;stroke-opacity:1;paint-order:normal;color-rendering:auto;image-rendering:auto;shape-rendering:auto;text-rendering:auto;enable-background:accumulate"
       d="m 8,1036.3613 c -0.4174156,0 -0.9476133,0.01 -1.4335938,0.3145 -0.2540996,0.16 -0.5294451,0.3674 -0.7597656,0.6387 -0.2303205,0.2712 -0.4277344,0.6229 -0.4277344,1.0468 v 8 c 0,0.1931 -0.1619521,0.5705 -0.3828124,0.9981 C 4.7752334,1047.787 4.5,1048.2703 4.5,1048.8613 c 0,1.9271 1.5729349,3.5 3.5,3.5 1.9270651,0 3.5,-1.5729 3.5,-3.5 0,-0.591 -0.275233,-1.0743 -0.496094,-1.5019 -0.22086,-0.4276 -0.382812,-0.805 -0.382812,-0.9981 v -8 c 0,-0.4239 -0.197414,-0.7756 -0.427735,-1.0468 -0.2303201,-0.2713 -0.5056656,-0.4787 -0.7597652,-0.6387 C 8.9474585,1036.3694 8.4172477,1036.3613 8,1036.3613 Z m 0,1 c 0.3769557,0 0.7144698,0.043 0.9003906,0.1602 0.192504,0.1212 0.3965891,0.2808 0.53125,0.4394 0.1346609,0.1586 0.1894532,0.2965 0.1894532,0.4004 v 8 c 0,0.5747 0.277454,1.0337 0.4960942,1.4571 0.218639,0.4233 0.382812,0.8056 0.382812,1.0429 0,1.3867 -1.1133567,2.5 -2.5,2.5 -1.3866433,0 -2.5,-1.1133 -2.5,-2.5 0,-0.2373 0.1641728,-0.6196 0.3828125,-1.0429 0.2186397,-0.4234 0.4960937,-0.8824 0.4960937,-1.4571 v -8 c 0,-0.1039 0.054792,-0.2418 0.1894532,-0.4004 0.1346609,-0.1586 0.338746,-0.3182 0.53125,-0.4394 0.1860755,-0.1172 0.5236028,-0.1602 0.9003906,-0.1602 z"
       id="path814"
       inkscape:connector-curvature="0" />
    <path
       style="opacity:1;fill:#bebebe;fill-opacity:1;fill-rule:nonzero;stroke:none;stroke-width:1;stroke-linecap:round;stroke-linejoin:miter;stroke-miterlimit:0;stroke-dasharray:none;stroke-opacity:1;paint-order:normal"
       d="m 10,1049.0179 c 0.09635,0.9006 -0.8954305,2 -2,2 -1.1045695,0 -2.0472398,-0.9613 -2,-2 0.04724,-1.0387 0.3145738,-1.3807 1,-1.8428 v -3.813 l 2,2e-4 v 3.8128 c 0.8338916,0.3501 0.9036543,0.9422 1,1.8428 z"
       id="path817"
       inkscape:connector-curvature="0"
       sodipodi:nodetypes="zszccccz" />
  </g>
</svg>
